<?xml version="1.0" standalone="no"?>
<!DOCTYPE svg PUBLIC "-//W3C//DTD SVG 20010904//EN"
 "http://www.w3.org/TR/2001/REC-SVG-20010904/DTD/svg10.dtd">
<svg version="1.0" xmlns="http://www.w3.org/2000/svg"
 width="104.000000pt" height="100.000000pt" viewBox="0 0 104.000000 100.000000"
 preserveAspectRatio="xMidYMid meet">

<g transform="translate(0.000000,100.000000) scale(0.100000,-0.100000)"
fill="#000000" stroke="none">
<path d="M445 906 c-17 -7 -45 -29 -62 -49 -57 -65 -56 -151 3 -217 20 -21 51
-44 70 -50 125 -42 250 78 214 204 -27 97 -136 151 -225 112z"/>
<path d="M374 480 c-90 -25 -153 -52 -209 -90 -66 -45 -75 -70 -75 -200 l0
-110 420 0 420 0 0 110 c0 79 -4 119 -15 140 -40 78 -264 171 -409 169 -34 0
-93 -9 -132 -19z m283 -95 c43 -14 102 -38 131 -55 l52 -30 0 -65 0 -65 -330
0 -330 0 0 65 0 64 47 28 c140 82 291 103 430 58z"/>
</g>
</svg>
